# xmcd
#
# Track frame offsets:
#  150
#  13695
#  27322
#  41313
#  55215
#  67865
#  82603
#  96668
#  109918
#  122261
#  136014
#  150292
#  163313
#  177523
#  190939
#  203663
#  218770
#  233273
#  246039
#  258821
#  271141
#  283730
#  297137
#  310157
#  324748
#
# Disc length: 4487 seconds
#
# Revision: 0
# Processed by: cddbd v1.5.2PL0 Copyright (c) Steve Scherf et al.
# Submitted via: AltoMP3_Maker 3.0
#
DISCID=4b118519
DTITLE=Roosevelt Sykes - The Roosevelt Sykes Collection, 1928-47, CD1
DYEAR=1900
DGENRE=
TTITLE0=44 Blues
TTITLE1=Boot That thing
TTITLE2=Henry Ford Blues
TTITLE3=Skeet and Garret
TTITLE4=Roosevelt's Blues
TTITLE5=Lost All I Had Blues
TTITLE6=32-20 Blues
TTITLE7=3-6 and 9
TTITLE8=Kelly's Special
TTITLE9=Nasty but It's Clean
TTITLE10=Highway 61 Blues
TTITLE11=Big Legs Ida Blues
TTITLE12=D-B-A Blues
TTITLE13=Dirty Mother for You (Don't You Know)
TTITLE14=She Left Me Cold in Hand
TTITLE15=Cannon Ball (as The Honey Dripper)
TTITLE16=Jet Black Snake (as The Honey Dripper)
TTITLE17=Driving Wheel Blues (as The Honey Dripper)
TTITLE18=Sister Kelly Blues
TTITLE19=The Honey Dripper
TTITLE20=Night Time Is the Right Time
TTITLE21=Little and Low
TTITLE22=Monte Carlo Blues
TTITLE23=Hospital, Heaven or Hell
TTITLE24=Drunken Gambler
EXTD=
EXTT0=
EXTT1=
EXTT2=
EXTT3=
EXTT4=
EXTT5=
EXTT6=
EXTT7=
EXTT8=
EXTT9=
EXTT10=
EXTT11=
EXTT12=
EXTT13=
EXTT14=
EXTT15=
EXTT16=
EXTT17=
EXTT18=
EXTT19=
EXTT20=
EXTT21=
EXTT22=
EXTT23=
EXTT24=
PLAYORDER=
